<mxfile host="app.diagrams.net" agent="Mozilla/5.0 (Windows NT 10.0; Win64; x64) AppleWebKit/537.36 (KHTML, like Gecko) Chrome/127.0.0.0 Safari/537.36" version="24.7.7">
  <diagram name="Page-1" id="YS7yst0GcitPKb5qi4lf">
    <mxGraphModel dx="2140" dy="696" grid="1" gridSize="10" guides="1" tooltips="1" connect="1" arrows="1" fold="1" page="1" pageScale="1" pageWidth="827" pageHeight="1169" math="0" shadow="0">
      <root>
        <mxCell id="0" />
        <mxCell id="1" parent="0" />
        <mxCell id="cZj2MIxqSwXQaEjKQkLF-128" style="edgeStyle=orthogonalEdgeStyle;rounded=0;orthogonalLoop=1;jettySize=auto;html=1;entryX=0.25;entryY=0;entryDx=0;entryDy=0;" edge="1" parent="1" source="cZj2MIxqSwXQaEjKQkLF-1" target="cZj2MIxqSwXQaEjKQkLF-34">
          <mxGeometry relative="1" as="geometry">
            <Array as="points">
              <mxPoint x="420" y="900" />
              <mxPoint x="420" y="900" />
            </Array>
          </mxGeometry>
        </mxCell>
        <mxCell id="cZj2MIxqSwXQaEjKQkLF-132" value="Swap&lt;br&gt;(wd, sf)" style="edgeLabel;html=1;align=center;verticalAlign=middle;resizable=0;points=[];fontFamily=JetBrains Mono;fontSource=https%3A%2F%2Ffonts.googleapis.com%2Fcss%3Ffamily%3DJetBrains%2BMono;" vertex="1" connectable="0" parent="cZj2MIxqSwXQaEjKQkLF-128">
          <mxGeometry x="-0.15" y="1" relative="1" as="geometry">
            <mxPoint x="-1" as="offset" />
          </mxGeometry>
        </mxCell>
        <mxCell id="cZj2MIxqSwXQaEjKQkLF-130" style="edgeStyle=orthogonalEdgeStyle;rounded=0;orthogonalLoop=1;jettySize=auto;html=1;exitX=0.5;exitY=1;exitDx=0;exitDy=0;entryX=0.5;entryY=0;entryDx=0;entryDy=0;" edge="1" parent="1" source="cZj2MIxqSwXQaEjKQkLF-1" target="cZj2MIxqSwXQaEjKQkLF-34">
          <mxGeometry relative="1" as="geometry" />
        </mxCell>
        <mxCell id="cZj2MIxqSwXQaEjKQkLF-133" value="Write&lt;br&gt;(bkup, sf)" style="edgeLabel;html=1;align=center;verticalAlign=middle;resizable=0;points=[];fontFamily=JetBrains Mono;fontSource=https%3A%2F%2Ffonts.googleapis.com%2Fcss%3Ffamily%3DJetBrains%2BMono;" vertex="1" connectable="0" parent="cZj2MIxqSwXQaEjKQkLF-130">
          <mxGeometry x="-0.0705" y="-1" relative="1" as="geometry">
            <mxPoint x="1" y="-3" as="offset" />
          </mxGeometry>
        </mxCell>
        <mxCell id="cZj2MIxqSwXQaEjKQkLF-1" value="AggregationServer" style="swimlane;whiteSpace=wrap;html=1;startSize=40;fontFamily=JetBrains Mono;fontSource=https%3A%2F%2Ffonts.googleapis.com%2Fcss%3Ffamily%3DJetBrains%2BMono;fillColor=#ffe6cc;strokeColor=#d79b00;" vertex="1" parent="1">
          <mxGeometry x="320" y="480" width="400" height="450" as="geometry" />
        </mxCell>
        <mxCell id="cZj2MIxqSwXQaEjKQkLF-25" value="hostname" style="rounded=0;whiteSpace=wrap;html=1;fontFamily=JetBrains Mono;fontSource=https%3A%2F%2Ffonts.googleapis.com%2Fcss%3Ffamily%3DJetBrains%2BMono;" vertex="1" parent="cZj2MIxqSwXQaEjKQkLF-1">
          <mxGeometry x="10" y="50" width="180" height="40" as="geometry" />
        </mxCell>
        <mxCell id="cZj2MIxqSwXQaEjKQkLF-47" value="message_queue" style="rounded=0;whiteSpace=wrap;html=1;fontFamily=JetBrains Mono;fontSource=https%3A%2F%2Ffonts.googleapis.com%2Fcss%3Ffamily%3DJetBrains%2BMono;" vertex="1" parent="cZj2MIxqSwXQaEjKQkLF-1">
          <mxGeometry x="10" y="200" width="180" height="40" as="geometry" />
        </mxCell>
        <mxCell id="cZj2MIxqSwXQaEjKQkLF-53" value="datafile_source" style="rounded=0;whiteSpace=wrap;html=1;fontFamily=JetBrains Mono;fontSource=https%3A%2F%2Ffonts.googleapis.com%2Fcss%3Ffamily%3DJetBrains%2BMono;" vertex="1" parent="cZj2MIxqSwXQaEjKQkLF-1">
          <mxGeometry x="10" y="150" width="180" height="40" as="geometry" />
        </mxCell>
        <mxCell id="cZj2MIxqSwXQaEjKQkLF-26" value="&lt;div style=&quot;text-align: start;&quot;&gt;StartServer()&lt;/div&gt;" style="shape=parallelogram;perimeter=parallelogramPerimeter;whiteSpace=wrap;html=1;fixedSize=1;fontFamily=JetBrains Mono;fontSource=https%3A%2F%2Ffonts.googleapis.com%2Fcss%3Ffamily%3DJetBrains%2BMono;" vertex="1" parent="cZj2MIxqSwXQaEjKQkLF-1">
          <mxGeometry x="10" y="250" width="180" height="40" as="geometry" />
        </mxCell>
        <mxCell id="cZj2MIxqSwXQaEjKQkLF-45" value="&lt;div style=&quot;text-align: start;&quot;&gt;ProcessPUT(msg)&lt;/div&gt;" style="shape=parallelogram;perimeter=parallelogramPerimeter;whiteSpace=wrap;html=1;fixedSize=1;fontFamily=JetBrains Mono;fontSource=https%3A%2F%2Ffonts.googleapis.com%2Fcss%3Ffamily%3DJetBrains%2BMono;" vertex="1" parent="cZj2MIxqSwXQaEjKQkLF-1">
          <mxGeometry x="210" y="200" width="180" height="40" as="geometry" />
        </mxCell>
        <mxCell id="cZj2MIxqSwXQaEjKQkLF-51" value="&lt;div style=&quot;text-align: start;&quot;&gt;SwapData(&lt;span style=&quot;background-color: initial;&quot;&gt;)&lt;/span&gt;&lt;/div&gt;" style="shape=parallelogram;perimeter=parallelogramPerimeter;whiteSpace=wrap;html=1;fixedSize=1;fontFamily=JetBrains Mono;fontSource=https%3A%2F%2Ffonts.googleapis.com%2Fcss%3Ffamily%3DJetBrains%2BMono;" vertex="1" parent="cZj2MIxqSwXQaEjKQkLF-1">
          <mxGeometry x="210" y="300" width="180" height="40" as="geometry" />
        </mxCell>
        <mxCell id="cZj2MIxqSwXQaEjKQkLF-46" value="&lt;div style=&quot;text-align: start;&quot;&gt;ProcessGET(msg)&lt;/div&gt;" style="shape=parallelogram;perimeter=parallelogramPerimeter;whiteSpace=wrap;html=1;fixedSize=1;fontFamily=JetBrains Mono;fontSource=https%3A%2F%2Ffonts.googleapis.com%2Fcss%3Ffamily%3DJetBrains%2BMono;" vertex="1" parent="cZj2MIxqSwXQaEjKQkLF-1">
          <mxGeometry x="210" y="250" width="180" height="40" as="geometry" />
        </mxCell>
        <mxCell id="cZj2MIxqSwXQaEjKQkLF-52" value="&lt;div style=&quot;text-align: start;&quot;&gt;&lt;span style=&quot;background-color: initial;&quot;&gt;SendPacket()&lt;/span&gt;&lt;/div&gt;" style="shape=parallelogram;perimeter=parallelogramPerimeter;whiteSpace=wrap;html=1;fixedSize=1;fontFamily=JetBrains Mono;fontSource=https%3A%2F%2Ffonts.googleapis.com%2Fcss%3Ffamily%3DJetBrains%2BMono;" vertex="1" parent="cZj2MIxqSwXQaEjKQkLF-1">
          <mxGeometry x="10" y="400" width="180" height="40" as="geometry" />
        </mxCell>
        <mxCell id="cZj2MIxqSwXQaEjKQkLF-54" value="&lt;div style=&quot;text-align: start;&quot;&gt;PurgeData()&lt;/div&gt;" style="shape=parallelogram;perimeter=parallelogramPerimeter;whiteSpace=wrap;html=1;fixedSize=1;fontFamily=JetBrains Mono;fontSource=https%3A%2F%2Ffonts.googleapis.com%2Fcss%3Ffamily%3DJetBrains%2BMono;" vertex="1" parent="cZj2MIxqSwXQaEjKQkLF-1">
          <mxGeometry x="210" y="350" width="180" height="40" as="geometry" />
        </mxCell>
        <mxCell id="cZj2MIxqSwXQaEjKQkLF-61" value="&lt;div style=&quot;text-align: start;&quot;&gt;RestoreState()&lt;/div&gt;" style="shape=parallelogram;perimeter=parallelogramPerimeter;whiteSpace=wrap;html=1;fixedSize=1;fontFamily=JetBrains Mono;fontSource=https%3A%2F%2Ffonts.googleapis.com%2Fcss%3Ffamily%3DJetBrains%2BMono;" vertex="1" parent="cZj2MIxqSwXQaEjKQkLF-1">
          <mxGeometry x="10" y="300" width="180" height="40" as="geometry" />
        </mxCell>
        <mxCell id="cZj2MIxqSwXQaEjKQkLF-110" value="&lt;div style=&quot;text-align: start;&quot;&gt;ValidatePUT(msg)&lt;/div&gt;" style="shape=parallelogram;perimeter=parallelogramPerimeter;whiteSpace=wrap;html=1;fixedSize=1;fontFamily=JetBrains Mono;fontSource=https%3A%2F%2Ffonts.googleapis.com%2Fcss%3Ffamily%3DJetBrains%2BMono;" vertex="1" parent="cZj2MIxqSwXQaEjKQkLF-1">
          <mxGeometry x="210" y="100" width="180" height="40" as="geometry" />
        </mxCell>
        <mxCell id="cZj2MIxqSwXQaEjKQkLF-113" value="&lt;div style=&quot;text-align: start;&quot;&gt;ValidateGET(msg)&lt;/div&gt;" style="shape=parallelogram;perimeter=parallelogramPerimeter;whiteSpace=wrap;html=1;fixedSize=1;fontFamily=JetBrains Mono;fontSource=https%3A%2F%2Ffonts.googleapis.com%2Fcss%3Ffamily%3DJetBrains%2BMono;" vertex="1" parent="cZj2MIxqSwXQaEjKQkLF-1">
          <mxGeometry x="210" y="150" width="180" height="40" as="geometry" />
        </mxCell>
        <mxCell id="cZj2MIxqSwXQaEjKQkLF-135" value="&lt;div style=&quot;text-align: start;&quot;&gt;ValidateData()&lt;/div&gt;" style="shape=parallelogram;perimeter=parallelogramPerimeter;whiteSpace=wrap;html=1;fixedSize=1;fontFamily=JetBrains Mono;fontSource=https%3A%2F%2Ffonts.googleapis.com%2Fcss%3Ffamily%3DJetBrains%2BMono;" vertex="1" parent="cZj2MIxqSwXQaEjKQkLF-1">
          <mxGeometry x="210" y="50" width="180" height="40" as="geometry" />
        </mxCell>
        <mxCell id="cZj2MIxqSwXQaEjKQkLF-140" value="&lt;div style=&quot;text-align: start;&quot;&gt;WriteBackup()&lt;/div&gt;" style="shape=parallelogram;perimeter=parallelogramPerimeter;whiteSpace=wrap;html=1;fixedSize=1;fontFamily=JetBrains Mono;fontSource=https%3A%2F%2Ffonts.googleapis.com%2Fcss%3Ffamily%3DJetBrains%2BMono;" vertex="1" parent="cZj2MIxqSwXQaEjKQkLF-1">
          <mxGeometry x="10" y="350" width="180" height="40" as="geometry" />
        </mxCell>
        <mxCell id="cZj2MIxqSwXQaEjKQkLF-184" value="lamport_clock" style="rounded=0;whiteSpace=wrap;html=1;fontFamily=JetBrains Mono;fontSource=https%3A%2F%2Ffonts.googleapis.com%2Fcss%3Ffamily%3DJetBrains%2BMono;" vertex="1" parent="cZj2MIxqSwXQaEjKQkLF-1">
          <mxGeometry x="10" y="100" width="180" height="40" as="geometry" />
        </mxCell>
        <mxCell id="cZj2MIxqSwXQaEjKQkLF-145" style="edgeStyle=orthogonalEdgeStyle;rounded=0;orthogonalLoop=1;jettySize=auto;html=1;entryX=0;entryY=0.75;entryDx=0;entryDy=0;endSize=12;endArrow=block;endFill=0;exitX=0;exitY=0.5;exitDx=0;exitDy=0;" edge="1" parent="1" source="cZj2MIxqSwXQaEjKQkLF-152" target="cZj2MIxqSwXQaEjKQkLF-13">
          <mxGeometry relative="1" as="geometry">
            <mxPoint x="40" y="579.9999999999998" as="sourcePoint" />
            <Array as="points">
              <mxPoint x="10" y="605" />
              <mxPoint x="10" y="370" />
            </Array>
          </mxGeometry>
        </mxCell>
        <mxCell id="cZj2MIxqSwXQaEjKQkLF-13" value="AggregationClient" style="swimlane;whiteSpace=wrap;html=1;startSize=40;fontFamily=JetBrains Mono;fontSource=https%3A%2F%2Ffonts.googleapis.com%2Fcss%3Ffamily%3DJetBrains%2BMono;fillColor=#f8cecc;strokeColor=#b85450;" vertex="1" parent="1">
          <mxGeometry x="40" y="220" width="400" height="200" as="geometry" />
        </mxCell>
        <mxCell id="cZj2MIxqSwXQaEjKQkLF-16" value="&lt;div style=&quot;text-align: start;&quot;&gt;&lt;span style=&quot;background-color: initial;&quot;&gt;AssemblePacket()&lt;/span&gt;&lt;/div&gt;" style="shape=parallelogram;perimeter=parallelogramPerimeter;whiteSpace=wrap;html=1;fixedSize=1;fontFamily=JetBrains Mono;fontSource=https%3A%2F%2Ffonts.googleapis.com%2Fcss%3Ffamily%3DJetBrains%2BMono;" vertex="1" parent="cZj2MIxqSwXQaEjKQkLF-13">
          <mxGeometry x="10" y="150" width="180" height="40" as="geometry" />
        </mxCell>
        <mxCell id="cZj2MIxqSwXQaEjKQkLF-17" value="&lt;div style=&quot;text-align: start;&quot;&gt;&lt;span style=&quot;background-color: initial;&quot;&gt;SendPacket()&lt;/span&gt;&lt;/div&gt;" style="shape=parallelogram;perimeter=parallelogramPerimeter;whiteSpace=wrap;html=1;fixedSize=1;fontFamily=JetBrains Mono;fontSource=https%3A%2F%2Ffonts.googleapis.com%2Fcss%3Ffamily%3DJetBrains%2BMono;" vertex="1" parent="cZj2MIxqSwXQaEjKQkLF-13">
          <mxGeometry x="210" y="50" width="180" height="40" as="geometry" />
        </mxCell>
        <mxCell id="cZj2MIxqSwXQaEjKQkLF-48" value="&lt;div style=&quot;text-align: start;&quot;&gt;&lt;span style=&quot;background-color: initial;&quot;&gt;StartClient()&lt;/span&gt;&lt;/div&gt;" style="shape=parallelogram;perimeter=parallelogramPerimeter;whiteSpace=wrap;html=1;fixedSize=1;fontFamily=JetBrains Mono;fontSource=https%3A%2F%2Ffonts.googleapis.com%2Fcss%3Ffamily%3DJetBrains%2BMono;" vertex="1" parent="cZj2MIxqSwXQaEjKQkLF-13">
          <mxGeometry x="10" y="50" width="180" height="40" as="geometry" />
        </mxCell>
        <mxCell id="cZj2MIxqSwXQaEjKQkLF-49" value="&lt;div style=&quot;text-align: start;&quot;&gt;&lt;span style=&quot;background-color: initial;&quot;&gt;ProcessCommand()&lt;/span&gt;&lt;/div&gt;" style="shape=parallelogram;perimeter=parallelogramPerimeter;whiteSpace=wrap;html=1;fixedSize=1;fontFamily=JetBrains Mono;fontSource=https%3A%2F%2Ffonts.googleapis.com%2Fcss%3Ffamily%3DJetBrains%2BMono;" vertex="1" parent="cZj2MIxqSwXQaEjKQkLF-13">
          <mxGeometry x="10" y="100" width="180" height="40" as="geometry" />
        </mxCell>
        <mxCell id="cZj2MIxqSwXQaEjKQkLF-141" value="&lt;div style=&quot;text-align: start;&quot;&gt;ProcessResponse(msg)&lt;/div&gt;" style="shape=parallelogram;perimeter=parallelogramPerimeter;whiteSpace=wrap;html=1;fixedSize=1;fontFamily=JetBrains Mono;fontSource=https%3A%2F%2Ffonts.googleapis.com%2Fcss%3Ffamily%3DJetBrains%2BMono;" vertex="1" parent="cZj2MIxqSwXQaEjKQkLF-13">
          <mxGeometry x="210" y="99.66" width="180" height="40" as="geometry" />
        </mxCell>
        <mxCell id="cZj2MIxqSwXQaEjKQkLF-18" value="LamportClock" style="swimlane;whiteSpace=wrap;html=1;startSize=40;fontFamily=JetBrains Mono;fontSource=https%3A%2F%2Ffonts.googleapis.com%2Fcss%3Ffamily%3DJetBrains%2BMono;fillColor=#ffe6cc;strokeColor=#d79b00;" vertex="1" parent="1">
          <mxGeometry x="520" y="220" width="200" height="200" as="geometry" />
        </mxCell>
        <mxCell id="cZj2MIxqSwXQaEjKQkLF-20" value="&lt;div style=&quot;text-align: start;&quot;&gt;&lt;span style=&quot;background-color: initial;&quot;&gt;ProcessEvent()&lt;/span&gt;&lt;/div&gt;" style="shape=parallelogram;perimeter=parallelogramPerimeter;whiteSpace=wrap;html=1;fixedSize=1;fontFamily=JetBrains Mono;fontSource=https%3A%2F%2Ffonts.googleapis.com%2Fcss%3Ffamily%3DJetBrains%2BMono;" vertex="1" parent="cZj2MIxqSwXQaEjKQkLF-18">
          <mxGeometry x="10" y="50" width="180" height="40" as="geometry" />
        </mxCell>
        <mxCell id="cZj2MIxqSwXQaEjKQkLF-21" value="&lt;div style=&quot;text-align: start;&quot;&gt;&lt;span style=&quot;background-color: initial;&quot;&gt;ProcessEvent(time)&lt;/span&gt;&lt;/div&gt;" style="shape=parallelogram;perimeter=parallelogramPerimeter;whiteSpace=wrap;html=1;fixedSize=1;fontFamily=JetBrains Mono;fontSource=https%3A%2F%2Ffonts.googleapis.com%2Fcss%3Ffamily%3DJetBrains%2BMono;" vertex="1" parent="cZj2MIxqSwXQaEjKQkLF-18">
          <mxGeometry x="10" y="100" width="180" height="40" as="geometry" />
        </mxCell>
        <mxCell id="cZj2MIxqSwXQaEjKQkLF-22" value="&lt;div style=&quot;text-align: start;&quot;&gt;GetLamportTime()&lt;/div&gt;" style="shape=parallelogram;perimeter=parallelogramPerimeter;whiteSpace=wrap;html=1;fixedSize=1;fontFamily=JetBrains Mono;fontSource=https%3A%2F%2Ffonts.googleapis.com%2Fcss%3Ffamily%3DJetBrains%2BMono;" vertex="1" parent="cZj2MIxqSwXQaEjKQkLF-18">
          <mxGeometry x="10" y="150" width="180" height="40" as="geometry" />
        </mxCell>
        <mxCell id="cZj2MIxqSwXQaEjKQkLF-131" style="edgeStyle=orthogonalEdgeStyle;rounded=0;orthogonalLoop=1;jettySize=auto;html=1;entryX=0.75;entryY=1;entryDx=0;entryDy=0;exitX=0.75;exitY=0;exitDx=0;exitDy=0;" edge="1" parent="1" source="cZj2MIxqSwXQaEjKQkLF-34" target="cZj2MIxqSwXQaEjKQkLF-1">
          <mxGeometry relative="1" as="geometry" />
        </mxCell>
        <mxCell id="cZj2MIxqSwXQaEjKQkLF-134" value="Read&lt;br&gt;(wd, bkup)" style="edgeLabel;html=1;align=center;verticalAlign=middle;resizable=0;points=[];fontFamily=JetBrains Mono;fontSource=https%3A%2F%2Ffonts.googleapis.com%2Fcss%3Ffamily%3DJetBrains%2BMono;" vertex="1" connectable="0" parent="cZj2MIxqSwXQaEjKQkLF-131">
          <mxGeometry x="0.1529" y="3" relative="1" as="geometry">
            <mxPoint x="3" as="offset" />
          </mxGeometry>
        </mxCell>
        <mxCell id="cZj2MIxqSwXQaEjKQkLF-176" style="edgeStyle=orthogonalEdgeStyle;rounded=0;orthogonalLoop=1;jettySize=auto;html=1;entryX=1;entryY=0.75;entryDx=0;entryDy=0;" edge="1" parent="1" target="cZj2MIxqSwXQaEjKQkLF-148">
          <mxGeometry relative="1" as="geometry">
            <mxPoint x="320" y="1100" as="sourcePoint" />
            <mxPoint x="240" y="1100" as="targetPoint" />
            <Array as="points">
              <mxPoint x="280" y="1100" />
              <mxPoint x="280" y="1050" />
            </Array>
          </mxGeometry>
        </mxCell>
        <mxCell id="cZj2MIxqSwXQaEjKQkLF-177" value="Read&lt;br&gt;(cd)" style="edgeLabel;html=1;align=center;verticalAlign=middle;resizable=0;points=[];fontFamily=JetBrains Mono;fontSource=https%3A%2F%2Ffonts.googleapis.com%2Fcss%3Ffamily%3DJetBrains%2BMono;" vertex="1" connectable="0" parent="cZj2MIxqSwXQaEjKQkLF-176">
          <mxGeometry x="-0.2955" y="2" relative="1" as="geometry">
            <mxPoint x="2" y="-19" as="offset" />
          </mxGeometry>
        </mxCell>
        <mxCell id="cZj2MIxqSwXQaEjKQkLF-34" value="File System" style="swimlane;whiteSpace=wrap;html=1;startSize=40;fontFamily=JetBrains Mono;fontSource=https%3A%2F%2Ffonts.googleapis.com%2Fcss%3Ffamily%3DJetBrains%2BMono;fillColor=#f5f5f5;fontColor=#333333;strokeColor=#666666;" vertex="1" parent="1">
          <mxGeometry x="320" y="1000" width="400" height="150" as="geometry" />
        </mxCell>
        <mxCell id="cZj2MIxqSwXQaEjKQkLF-126" value="backup.txt" style="shape=note;whiteSpace=wrap;html=1;backgroundOutline=1;darkOpacity=0.05;size=14;fontFamily=JetBrains Mono;fontSource=https%3A%2F%2Ffonts.googleapis.com%2Fcss%3Ffamily%3DJetBrains%2BMono;" vertex="1" parent="cZj2MIxqSwXQaEjKQkLF-34">
          <mxGeometry x="210" y="50" width="180" height="40" as="geometry" />
        </mxCell>
        <mxCell id="cZj2MIxqSwXQaEjKQkLF-44" value="weather_data.txt" style="shape=note;whiteSpace=wrap;html=1;backgroundOutline=1;darkOpacity=0.05;size=14;fontFamily=JetBrains Mono;fontSource=https%3A%2F%2Ffonts.googleapis.com%2Fcss%3Ffamily%3DJetBrains%2BMono;" vertex="1" parent="cZj2MIxqSwXQaEjKQkLF-34">
          <mxGeometry x="10" y="50" width="180" height="40" as="geometry" />
        </mxCell>
        <mxCell id="cZj2MIxqSwXQaEjKQkLF-171" value="swap_file.txt" style="shape=note;whiteSpace=wrap;html=1;backgroundOutline=1;darkOpacity=0.05;size=14;fontFamily=JetBrains Mono;fontSource=https%3A%2F%2Ffonts.googleapis.com%2Fcss%3Ffamily%3DJetBrains%2BMono;" vertex="1" parent="cZj2MIxqSwXQaEjKQkLF-34">
          <mxGeometry x="50" y="100" width="140" height="40" as="geometry" />
        </mxCell>
        <mxCell id="cZj2MIxqSwXQaEjKQkLF-172" value="swap_file.txt" style="shape=note;whiteSpace=wrap;html=1;backgroundOutline=1;darkOpacity=0.05;size=14;fontFamily=JetBrains Mono;fontSource=https%3A%2F%2Ffonts.googleapis.com%2Fcss%3Ffamily%3DJetBrains%2BMono;fontSize=12;" vertex="1" parent="cZj2MIxqSwXQaEjKQkLF-34">
          <mxGeometry x="40" y="100" width="140" height="40" as="geometry" />
        </mxCell>
        <mxCell id="cZj2MIxqSwXQaEjKQkLF-173" value="swap_file.txt" style="shape=note;whiteSpace=wrap;html=1;backgroundOutline=1;darkOpacity=0.05;size=14;fontFamily=JetBrains Mono;fontSource=https%3A%2F%2Ffonts.googleapis.com%2Fcss%3Ffamily%3DJetBrains%2BMono;fontSize=12;" vertex="1" parent="cZj2MIxqSwXQaEjKQkLF-34">
          <mxGeometry x="30" y="100" width="140" height="40" as="geometry" />
        </mxCell>
        <mxCell id="cZj2MIxqSwXQaEjKQkLF-174" value="swap_file.txt" style="shape=note;whiteSpace=wrap;html=1;backgroundOutline=1;darkOpacity=0.05;size=14;fontFamily=JetBrains Mono;fontSource=https%3A%2F%2Ffonts.googleapis.com%2Fcss%3Ffamily%3DJetBrains%2BMono;fontSize=12;" vertex="1" parent="cZj2MIxqSwXQaEjKQkLF-34">
          <mxGeometry x="20" y="100" width="140" height="40" as="geometry" />
        </mxCell>
        <mxCell id="cZj2MIxqSwXQaEjKQkLF-175" value="content_data.txt" style="shape=note;whiteSpace=wrap;html=1;backgroundOutline=1;darkOpacity=0.05;size=14;fontFamily=JetBrains Mono;fontSource=https%3A%2F%2Ffonts.googleapis.com%2Fcss%3Ffamily%3DJetBrains%2BMono;" vertex="1" parent="cZj2MIxqSwXQaEjKQkLF-34">
          <mxGeometry x="10" y="100" width="140" height="40" as="geometry" />
        </mxCell>
        <mxCell id="cZj2MIxqSwXQaEjKQkLF-156" style="edgeStyle=orthogonalEdgeStyle;rounded=0;orthogonalLoop=1;jettySize=auto;html=1;entryX=0;entryY=0.5;entryDx=0;entryDy=0;endSize=12;endArrow=block;endFill=0;exitX=0;exitY=0.25;exitDx=0;exitDy=0;" edge="1" parent="1" source="cZj2MIxqSwXQaEjKQkLF-148" target="cZj2MIxqSwXQaEjKQkLF-13">
          <mxGeometry relative="1" as="geometry">
            <mxPoint x="40" y="805" as="sourcePoint" />
            <Array as="points">
              <mxPoint x="40" y="820" />
              <mxPoint x="-10" y="820" />
              <mxPoint x="-10" y="320" />
            </Array>
          </mxGeometry>
        </mxCell>
        <mxCell id="cZj2MIxqSwXQaEjKQkLF-157" style="edgeStyle=orthogonalEdgeStyle;rounded=0;orthogonalLoop=1;jettySize=auto;html=1;exitX=1;exitY=0.25;exitDx=0;exitDy=0;" edge="1" parent="1" source="cZj2MIxqSwXQaEjKQkLF-148">
          <mxGeometry relative="1" as="geometry">
            <mxPoint x="320" y="850" as="targetPoint" />
          </mxGeometry>
        </mxCell>
        <mxCell id="cZj2MIxqSwXQaEjKQkLF-182" value="PUT" style="edgeLabel;html=1;align=center;verticalAlign=middle;resizable=0;points=[];fontFamily=JetBrains Mono;fontSource=https%3A%2F%2Ffonts.googleapis.com%2Fcss%3Ffamily%3DJetBrains%2BMono;" vertex="1" connectable="0" parent="cZj2MIxqSwXQaEjKQkLF-157">
          <mxGeometry x="-0.0352" y="-1" relative="1" as="geometry">
            <mxPoint y="-1" as="offset" />
          </mxGeometry>
        </mxCell>
        <mxCell id="cZj2MIxqSwXQaEjKQkLF-158" style="edgeStyle=orthogonalEdgeStyle;rounded=0;orthogonalLoop=1;jettySize=auto;html=1;exitX=1;exitY=0.5;exitDx=0;exitDy=0;startArrow=classic;startFill=1;endArrow=none;endFill=0;" edge="1" parent="1" source="cZj2MIxqSwXQaEjKQkLF-148">
          <mxGeometry relative="1" as="geometry">
            <mxPoint x="320" y="910" as="targetPoint" />
          </mxGeometry>
        </mxCell>
        <mxCell id="cZj2MIxqSwXQaEjKQkLF-183" value="200 201&lt;br&gt;204 400&lt;br&gt;500" style="edgeLabel;html=1;align=center;verticalAlign=middle;resizable=0;points=[];fontFamily=JetBrains Mono;fontSource=https%3A%2F%2Ffonts.googleapis.com%2Fcss%3Ffamily%3DJetBrains%2BMono;" vertex="1" connectable="0" parent="cZj2MIxqSwXQaEjKQkLF-158">
          <mxGeometry x="-0.0092" y="2" relative="1" as="geometry">
            <mxPoint x="1" y="3" as="offset" />
          </mxGeometry>
        </mxCell>
        <mxCell id="cZj2MIxqSwXQaEjKQkLF-148" value="ContentServer" style="swimlane;whiteSpace=wrap;html=1;startSize=40;fontFamily=JetBrains Mono;fontSource=https%3A%2F%2Ffonts.googleapis.com%2Fcss%3Ffamily%3DJetBrains%2BMono;fillColor=#ffe6cc;strokeColor=#d79b00;" vertex="1" parent="1">
          <mxGeometry x="40" y="750" width="200" height="400" as="geometry" />
        </mxCell>
        <mxCell id="cZj2MIxqSwXQaEjKQkLF-149" value="lamport_clock" style="rounded=0;whiteSpace=wrap;html=1;fontFamily=JetBrains Mono;fontSource=https%3A%2F%2Ffonts.googleapis.com%2Fcss%3Ffamily%3DJetBrains%2BMono;" vertex="1" parent="cZj2MIxqSwXQaEjKQkLF-148">
          <mxGeometry x="10" y="200" width="180" height="40" as="geometry" />
        </mxCell>
        <mxCell id="cZj2MIxqSwXQaEjKQkLF-150" value="hostname" style="rounded=0;whiteSpace=wrap;html=1;fontFamily=JetBrains Mono;fontSource=https%3A%2F%2Ffonts.googleapis.com%2Fcss%3Ffamily%3DJetBrains%2BMono;" vertex="1" parent="cZj2MIxqSwXQaEjKQkLF-148">
          <mxGeometry x="10" y="50" width="180" height="40" as="geometry" />
        </mxCell>
        <mxCell id="cZj2MIxqSwXQaEjKQkLF-193" value="content_filename" style="rounded=0;whiteSpace=wrap;html=1;fontFamily=JetBrains Mono;fontSource=https%3A%2F%2Ffonts.googleapis.com%2Fcss%3Ffamily%3DJetBrains%2BMono;" vertex="1" parent="cZj2MIxqSwXQaEjKQkLF-148">
          <mxGeometry x="10" y="250" width="180" height="40" as="geometry" />
        </mxCell>
        <mxCell id="cZj2MIxqSwXQaEjKQkLF-195" value="server_hostname" style="rounded=0;whiteSpace=wrap;html=1;fontFamily=JetBrains Mono;fontSource=https%3A%2F%2Ffonts.googleapis.com%2Fcss%3Ffamily%3DJetBrains%2BMono;" vertex="1" parent="cZj2MIxqSwXQaEjKQkLF-148">
          <mxGeometry x="10" y="100" width="180" height="40" as="geometry" />
        </mxCell>
        <mxCell id="cZj2MIxqSwXQaEjKQkLF-207" value="replicas" style="rounded=0;whiteSpace=wrap;html=1;fontFamily=JetBrains Mono;fontSource=https%3A%2F%2Ffonts.googleapis.com%2Fcss%3Ffamily%3DJetBrains%2BMono;" vertex="1" parent="cZj2MIxqSwXQaEjKQkLF-148">
          <mxGeometry x="10" y="150" width="180" height="40" as="geometry" />
        </mxCell>
        <mxCell id="cZj2MIxqSwXQaEjKQkLF-210" value="&lt;div style=&quot;text-align: start;&quot;&gt;&lt;span style=&quot;background-color: initial;&quot;&gt;Heartbeat()&lt;/span&gt;&lt;/div&gt;" style="shape=parallelogram;perimeter=parallelogramPerimeter;whiteSpace=wrap;html=1;fixedSize=1;fontFamily=JetBrains Mono;fontSource=https%3A%2F%2Ffonts.googleapis.com%2Fcss%3Ffamily%3DJetBrains%2BMono;" vertex="1" parent="cZj2MIxqSwXQaEjKQkLF-148">
          <mxGeometry x="10" y="300" width="180" height="40" as="geometry" />
        </mxCell>
        <mxCell id="cZj2MIxqSwXQaEjKQkLF-211" value="&lt;div style=&quot;text-align: start;&quot;&gt;&lt;span style=&quot;background-color: initial;&quot;&gt;Failover()&lt;/span&gt;&lt;/div&gt;" style="shape=parallelogram;perimeter=parallelogramPerimeter;whiteSpace=wrap;html=1;fixedSize=1;fontFamily=JetBrains Mono;fontSource=https%3A%2F%2Ffonts.googleapis.com%2Fcss%3Ffamily%3DJetBrains%2BMono;" vertex="1" parent="cZj2MIxqSwXQaEjKQkLF-148">
          <mxGeometry x="10" y="350" width="180" height="40" as="geometry" />
        </mxCell>
        <mxCell id="cZj2MIxqSwXQaEjKQkLF-160" style="edgeStyle=orthogonalEdgeStyle;rounded=0;orthogonalLoop=1;jettySize=auto;html=1;endArrow=none;endFill=0;startArrow=classic;startFill=1;exitX=1;exitY=0.75;exitDx=0;exitDy=0;" edge="1" parent="1" source="cZj2MIxqSwXQaEjKQkLF-152">
          <mxGeometry relative="1" as="geometry">
            <mxPoint x="240" y="600" as="sourcePoint" />
            <mxPoint x="320" y="668" as="targetPoint" />
            <Array as="points">
              <mxPoint x="281" y="668" />
              <mxPoint x="320" y="668" />
            </Array>
          </mxGeometry>
        </mxCell>
        <mxCell id="cZj2MIxqSwXQaEjKQkLF-181" value="200&lt;br&gt;400 500" style="edgeLabel;html=1;align=center;verticalAlign=middle;resizable=0;points=[];fontFamily=JetBrains Mono;fontSource=https%3A%2F%2Ffonts.googleapis.com%2Fcss%3Ffamily%3DJetBrains%2BMono;" vertex="1" connectable="0" parent="cZj2MIxqSwXQaEjKQkLF-160">
          <mxGeometry x="-0.0171" y="-1" relative="1" as="geometry">
            <mxPoint x="1" as="offset" />
          </mxGeometry>
        </mxCell>
        <mxCell id="cZj2MIxqSwXQaEjKQkLF-152" value="AggregationServer" style="swimlane;whiteSpace=wrap;html=1;startSize=40;fontFamily=JetBrains Mono;fontSource=https%3A%2F%2Ffonts.googleapis.com%2Fcss%3Ffamily%3DJetBrains%2BMono;fillColor=#ffe6cc;strokeColor=#d79b00;" vertex="1" parent="1">
          <mxGeometry x="40" y="480" width="200" height="250" as="geometry" />
        </mxCell>
        <mxCell id="cZj2MIxqSwXQaEjKQkLF-153" value="lamport_clock" style="rounded=0;whiteSpace=wrap;html=1;fontFamily=JetBrains Mono;fontSource=https%3A%2F%2Ffonts.googleapis.com%2Fcss%3Ffamily%3DJetBrains%2BMono;" vertex="1" parent="cZj2MIxqSwXQaEjKQkLF-152">
          <mxGeometry x="10" y="150" width="180" height="40" as="geometry" />
        </mxCell>
        <mxCell id="cZj2MIxqSwXQaEjKQkLF-154" value="hostname" style="rounded=0;whiteSpace=wrap;html=1;fontFamily=JetBrains Mono;fontSource=https%3A%2F%2Ffonts.googleapis.com%2Fcss%3Ffamily%3DJetBrains%2BMono;" vertex="1" parent="cZj2MIxqSwXQaEjKQkLF-152">
          <mxGeometry x="10" y="50" width="180" height="40" as="geometry" />
        </mxCell>
        <mxCell id="cZj2MIxqSwXQaEjKQkLF-192" value="station_id" style="rounded=0;whiteSpace=wrap;html=1;fontFamily=JetBrains Mono;fontSource=https%3A%2F%2Ffonts.googleapis.com%2Fcss%3Ffamily%3DJetBrains%2BMono;" vertex="1" parent="cZj2MIxqSwXQaEjKQkLF-152">
          <mxGeometry x="10" y="200" width="180" height="40" as="geometry" />
        </mxCell>
        <mxCell id="cZj2MIxqSwXQaEjKQkLF-194" value="server_hostname" style="rounded=0;whiteSpace=wrap;html=1;fontFamily=JetBrains Mono;fontSource=https%3A%2F%2Ffonts.googleapis.com%2Fcss%3Ffamily%3DJetBrains%2BMono;" vertex="1" parent="cZj2MIxqSwXQaEjKQkLF-152">
          <mxGeometry x="10" y="100" width="180" height="40" as="geometry" />
        </mxCell>
        <mxCell id="cZj2MIxqSwXQaEjKQkLF-164" style="edgeStyle=orthogonalEdgeStyle;rounded=0;orthogonalLoop=1;jettySize=auto;html=1;exitX=1;exitY=0.25;exitDx=0;exitDy=0;" edge="1" parent="1" source="cZj2MIxqSwXQaEjKQkLF-152">
          <mxGeometry relative="1" as="geometry">
            <mxPoint x="320" y="543" as="targetPoint" />
            <Array as="points">
              <mxPoint x="300" y="543" />
            </Array>
          </mxGeometry>
        </mxCell>
        <mxCell id="cZj2MIxqSwXQaEjKQkLF-178" value="GET" style="edgeLabel;html=1;align=center;verticalAlign=middle;resizable=0;points=[];fontFamily=JetBrains Mono;fontSource=https%3A%2F%2Ffonts.googleapis.com%2Fcss%3Ffamily%3DJetBrains%2BMono;" vertex="1" connectable="0" parent="cZj2MIxqSwXQaEjKQkLF-164">
          <mxGeometry x="-0.1192" y="-2" relative="1" as="geometry">
            <mxPoint x="4" y="-3" as="offset" />
          </mxGeometry>
        </mxCell>
      </root>
    </mxGraphModel>
  </diagram>
</mxfile>
